<svg width="20" height="20" viewBox="0 0 20 20" fill='none'  xmlns="http://www.w3.org/2000/svg">
<rect width="20" height="20" />
<rect width="1400" height="2045" transform="translate(-980 -354)" />
<g filter="url(#filter0_dd_0_1)">
<rect x="-33" y="-244" width="429" height="572" rx="16"  shape-rendering="crispEdges"/>
<rect x="-9" y="-14" width="381" height="52" rx="8" />
<path fill-rule="evenodd" clip-rule="evenodd" d="M0 9.99976C0 15.5226 4.47715 19.9998 10 19.9998C15.5228 19.9998 20 15.5226 20 9.99976C20 4.47691 15.5228 -0.000244141 10 -0.000244141C4.47715 -0.000244141 0 4.47691 0 9.99976ZM18.1818 9.99973C18.1818 14.5184 14.5187 18.1816 9.99997 18.1816C5.48128 18.1816 1.81815 14.5184 1.81815 9.99973C1.81815 5.48103 5.48128 1.81791 9.99997 1.81791C14.5187 1.81791 18.1818 5.48103 18.1818 9.99973Z" fill="url(#paint0_linear_0_1)"/>
<path fill-rule="evenodd" clip-rule="evenodd" d="M5.98273 8.6548C6.40206 8.29538 7.03336 8.34394 7.39278 8.76327L9.62861 11.3717L13.6826 6.58061C14.0394 6.15901 14.6704 6.10643 15.092 6.46317C15.5136 6.81991 15.5662 7.45089 15.2094 7.8725L10.7761 13.1118C10.1795 13.817 9.09334 13.8204 8.49219 13.1191L5.87427 10.0648C5.51485 9.64552 5.56341 9.01422 5.98273 8.6548Z" fill="url(#paint1_linear_0_1)"/>
</g>
<defs>
<filter id="filter0_dd_0_1" x="-43" y="-252" width="449" height="592" filterUnits="userSpaceOnUse" color-interpolation-filters="sRGB">
<feFlood flood-opacity="0" result="BackgroundImageFix"/>
<feColorMatrix in="SourceAlpha" type="matrix" values="0 0 0 0 0 0 0 0 0 0 0 0 0 0 0 0 0 0 127 0" result="hardAlpha"/>
<feOffset/>
<feGaussianBlur stdDeviation="0.5"/>
<feComposite in2="hardAlpha" operator="out"/>
<feColorMatrix type="matrix" values="0 0 0 0 0 0 0 0 0 0 0 0 0 0 0 0 0 0 0.3 0"/>
<feBlend mode="normal" in2="BackgroundImageFix" result="effect1_dropShadow_0_1"/>
<feColorMatrix in="SourceAlpha" type="matrix" values="0 0 0 0 0 0 0 0 0 0 0 0 0 0 0 0 0 0 127 0" result="hardAlpha"/>
<feOffset dy="2"/>
<feGaussianBlur stdDeviation="5"/>
<feComposite in2="hardAlpha" operator="out"/>
<feColorMatrix type="matrix" values="0 0 0 0 0 0 0 0 0 0 0 0 0 0 0 0 0 0 0.15 0"/>
<feBlend mode="normal" in2="effect1_dropShadow_0_1" result="effect2_dropShadow_0_1"/>
<feBlend mode="normal" in="SourceGraphic" in2="effect2_dropShadow_0_1" result="shape"/>
</filter>
<linearGradient id="paint0_linear_0_1" x1="3" y1="0.999939" x2="10" y2="19.9998" gradientUnits="userSpaceOnUse">
<stop stop-color="#0CD38B"/>
<stop offset="1" stop-color="#0CB477"/>
</linearGradient>
<linearGradient id="paint1_linear_0_1" x1="8" y1="6.5" x2="9.50888" y2="14.8594" gradientUnits="userSpaceOnUse">
<stop stop-color="#0CD38B"/>
<stop offset="1" stop-color="#0CB477"/>
</linearGradient>
</defs>
</svg>
